<svg width="21" height="23" viewBox="0 0 21 23" fill="none" xmlns="http://www.w3.org/2000/svg">
    <path
        d="M1.90576 15.331C2.41397 17.2219 3.53158 18.8925 5.08545 20.0839C6.63932 21.2753 8.54272 21.921 10.5008 21.921C12.4588 21.921 14.3622 21.2753 15.9161 20.0839C17.4699 18.8925 18.5876 17.2219 19.0958 15.331"
        stroke="#707070" stroke-width="2" />
    <path
        d="M10.5001 13.027L9.7061 14.02L10.5001 14.655L11.2941 14.02L10.5001 13.027ZM11.7751 1.58698C11.7751 1.24989 11.6412 0.926605 11.4028 0.688246C11.1645 0.449888 10.8412 0.315979 10.5041 0.315979C10.167 0.315979 9.84372 0.449888 9.60536 0.688246C9.36701 0.926605 9.2331 1.24989 9.2331 1.58698H11.7751ZM3.3501 8.93498L9.7061 14.016L11.2941 12.031L4.9381 6.94998L3.3501 8.93498ZM11.2941 14.016L17.6501 8.93098L16.0621 6.94998L9.7061 12.035L11.2941 14.016ZM11.7711 13.023V1.58698H9.2291V13.027L11.7711 13.023Z"
        fill="#707070" />
</svg>