<svg width="24" height="24" viewBox="0 0 24 24" fill="none" xmlns="http://www.w3.org/2000/svg">
    <path
        d="M7.9998 7.99998V5.19998C7.92004 4.48981 7.99439 3.7708 8.2178 3.09198C8.40954 2.71567 8.71549 2.40973 9.0918 2.21798C9.77061 1.99458 10.4896 1.92022 11.1998 1.99998H18.7998C19.51 1.92022 20.229 1.99458 20.9078 2.21798C21.2841 2.40973 21.5901 2.71567 21.7818 3.09198C22.0052 3.77079 22.0796 4.48981 21.9998 5.19998V12.8C22.0796 13.5101 22.0052 14.2292 21.7818 14.908C21.5901 15.2843 21.2841 15.5902 20.9078 15.782C20.229 16.0054 19.51 16.0798 18.7998 16H15.9998M5.1998 22H12.7998C13.51 22.0798 14.229 22.0054 14.9078 21.782C15.2841 21.5902 15.5901 21.2843 15.7818 20.908C16.0052 20.2292 16.0796 19.5101 15.9998 18.8V11.2C16.0796 10.4898 16.0052 9.77079 15.7818 9.09198C15.5901 8.71567 15.2841 8.40973 14.9078 8.21798C14.229 7.99458 13.51 7.92022 12.7998 7.99998H5.1998C4.48963 7.92022 3.77061 7.99458 3.0918 8.21798C2.71549 8.40973 2.40954 8.71567 2.2178 9.09198C1.99439 9.7708 1.92004 10.4898 1.9998 11.2V18.8C1.92004 19.5101 1.99439 20.2292 2.2178 20.908C2.40954 21.2843 2.71549 21.5902 3.0918 21.782C3.77061 22.0054 4.48963 22.0798 5.1998 22Z"
        stroke="#707070" stroke-width="2" stroke-linecap="round" stroke-linejoin="round" />
</svg>