<svg width="23" height="27" viewBox="0 0 23 27" fill="none" xmlns="http://www.w3.org/2000/svg">
<path d="M1.07861 17.7031C1.66992 19.9107 2.97318 21.8614 4.78622 23.2527C6.59926 24.644 8.82075 25.3982 11.1061 25.3982C13.3915 25.3982 15.613 24.644 17.426 23.2527C19.239 21.8614 20.5423 19.9107 21.1336 17.7031" stroke="#707070" stroke-width="2"/>
<path d="M11.1057 15.016L10.1797 16.174L11.1057 16.915L12.0317 16.174L11.1057 15.016ZM12.5887 1.66903C12.5887 1.27572 12.4324 0.898512 12.1543 0.620396C11.8762 0.342279 11.499 0.186035 11.1057 0.186035C10.7124 0.186035 10.3351 0.342279 10.057 0.620396C9.77892 0.898512 9.62267 1.27572 9.62267 1.66903H12.5887ZM2.76367 10.242L10.1787 16.174L12.0317 13.858L4.61667 7.92603L2.76367 10.242ZM12.0317 16.174L19.4467 10.242L17.5937 7.92603L10.1787 13.858L12.0317 16.174ZM12.5887 15.016V1.66903H9.62267V15.016H12.5887Z" fill="#707070"/>
</svg>
