<svg xmlns="http://www.w3.org/2000/svg" xmlns:xlink="http://www.w3.org/1999/xlink" width="190.337" height="50.691" viewBox="0 0 190.337 50.691">
  <defs>
    <linearGradient id="linear-gradient" x1="-0.168" y1="-33.726" x2="2.164" y2="-33.726" gradientUnits="objectBoundingBox">
      <stop offset="0" stop-color="#9d038b"/>
      <stop offset="0.466" stop-color="#ff5e5e"/>
      <stop offset="0.507" stop-color="#da3676"/>
      <stop offset="0.601" stop-color="#e63f72"/>
    </linearGradient>
    <linearGradient id="linear-gradient-2" y1="-33.8" x2="1" y2="-33.8" gradientUnits="objectBoundingBox">
      <stop offset="0" stop-color="#ff5d5e"/>
      <stop offset="1" stop-color="#ff5e5e"/>
    </linearGradient>
    <linearGradient id="linear-gradient-3" x1="-23.716" y1="0.5" x2="89.404" y2="0.5" xlink:href="#linear-gradient"/>
  </defs>
  <g id="Livello_1" data-name="Livello 1" transform="translate(-0.001 0)">
    <g id="Raggruppa_4336" data-name="Raggruppa 4336" transform="translate(80.407 12.508)">
      <path id="Tracciato_6569" data-name="Tracciato 6569" d="M260.069,60.384a1.886,1.886,0,0,1-.1-1.045.65.65,0,0,0,0-.241c-.471-2.5-.179-5.23-.2-7.71-.007-1.189-.021-2.418.061-3.635a.659.659,0,0,0-.033-.244,1.9,1.9,0,0,1-.021-1.063.7.7,0,0,0,.014-.337,17.144,17.144,0,0,1,.116-6.416.269.269,0,0,0-.035-.107.678.678,0,0,0-.577-.348h-6.418a.642.642,0,0,0-.65.648c.036,1.082,1.164.794,2.171,1.411,1.411.865,1.44,2.211,1.55,3.733a112.624,112.624,0,0,1-.053,16.159c-.24,1.975-1.1,3.128-2.974,3.192a.646.646,0,0,0-.62.647v.338a.649.649,0,0,0,.649.649h6.436a.651.651,0,0,0,.647-.69,35.375,35.375,0,0,1,.088-4.625.692.692,0,0,0-.057-.317Z" transform="translate(-252.232 -39.238)"/>
      <path id="Tracciato_6570" data-name="Tracciato 6570" d="M266.357,60.384a1.886,1.886,0,0,0,.1-1.045.65.65,0,0,1,0-.241c.471-2.5.179-5.23.2-7.71.007-1.189.021-2.418-.061-3.635a.659.659,0,0,1,.033-.244,1.9,1.9,0,0,0,.021-1.063.7.7,0,0,1-.014-.337,17.142,17.142,0,0,0-.116-6.416.268.268,0,0,1,.035-.107.678.678,0,0,1,.577-.348h6.418a.642.642,0,0,1,.65.648c-.036,1.082-1.165.794-2.171,1.411-1.411.865-1.44,2.211-1.55,3.733a112.629,112.629,0,0,0,.053,16.159c.24,1.975,1.1,3.128,2.975,3.192a.646.646,0,0,1,.62.647v.338a.649.649,0,0,1-.649.649h-6.436a.651.651,0,0,1-.647-.69A35.364,35.364,0,0,0,266.3,60.7a.692.692,0,0,1,.057-.317Z" transform="translate(-261.814 -39.238)"/>
    </g>
    <g id="Raggruppa_4337" data-name="Raggruppa 4337" transform="translate(0.001 0)">
      <path id="Tracciato_6571" data-name="Tracciato 6571" d="M415.474,61.649l5.325.1a.65.65,0,0,0,.584-.343l2.527-4.729,5.88-11.043a.649.649,0,0,1,1.156.021L436.428,56.9l2.356,4.816a.648.648,0,0,0,.572.364l4.264.076a.649.649,0,0,0,.595-.934L442.15,57h0l-11-22.612a.649.649,0,0,0-1.157-.021l-11.8,22.2" transform="translate(-283.03 -23.176)" fill="url(#linear-gradient)"/>
      <rect id="Rettangolo_4056" data-name="Rettangolo 4056" width="5.014" height="28.043" rx="1" transform="translate(168.955 10.917)" fill="url(#linear-gradient-2)"/>
      <path id="Tracciato_6572" data-name="Tracciato 6572" d="M595.99,80.709q.085-.089.166-.182a1.447,1.447,0,0,1-.266-.467,2.6,2.6,0,0,1-.1-.391h-.069c.011.062.021.123.034.185A5.854,5.854,0,0,0,595.99,80.709Z" transform="translate(-405.819 -54.272)" fill="url(#linear-gradient-3)"/>
      <path id="Tracciato_6573" data-name="Tracciato 6573" d="M22.149,0A.651.651,0,0,1,22.8.718c-.107.979-1.107.8-1.947,1.363a4.671,4.671,0,0,0-1.6,3.5c-1.018,10.154.82,21.811.008,32.173-.614,7.836-5.77,13.475-13.878,12.9-2.535-.18-7.03-1.933-4.755-5.1,2.186-3.045,4.8,1.012,6.184,1.442,4.059,1.264,5.188-2.167,5.443-5.419.936-11.939-.7-25.1-.036-37.174a.611.611,0,0,0-.009-.152,4,4,0,0,0-.94-1.839C10.2,1.439,8.3,1.862,8.054.759A.642.642,0,0,1,8.7,0H22.149Z" transform="translate(-0.001 0)"/>
      <path id="Tracciato_6574" data-name="Tracciato 6574" d="M83.013,37.34a.649.649,0,0,1,.756.64V58.073a5.988,5.988,0,0,0,1.806,2.335c3.243,2.1,9.175.4,9.66-3.926a88.678,88.678,0,0,0-.03-13.666c-.265-1.9-1.331-2.356-2.929-2.676a.651.651,0,0,1-.524-.616l0-.149a.649.649,0,0,1,.542-.661l8.24-1.374a.649.649,0,0,1,.756.64V60.621c0,.748,1.813,2.17,2.975,2.405a.641.641,0,0,1,.509.619l.007.317a.649.649,0,0,1-.627.663l-8.27.276a.649.649,0,0,1-.67-.622l-.069-1.659a.647.647,0,0,0-1.078-.457C90.034,65.79,82.7,66.657,79.18,62.026c-3.273-4.3-1.149-14.553-1.788-19.868-.365-1.938-3.078-1.351-3.241-2.746a.638.638,0,0,1,.542-.685l8.321-1.387Z" transform="translate(-50.51 -25.43)"/>
      <path id="Tracciato_6575" data-name="Tracciato 6575" d="M314.2,39.621h0a.65.65,0,0,1-.587.636c-.983.1-1.8.379-1.578,1.652.118.687,3.049,5.158,3.691,6.2.124.2-.028.6.551.412a48.647,48.647,0,0,0,4.621-6.553c.208-1.349-.676-1.493-1.67-1.666a.65.65,0,0,1-.538-.62l0-.048a.649.649,0,0,1,.649-.668h8.8a.647.647,0,0,1,.566.971c-.578.945-2.427,1.089-3.676,2.047a75.584,75.584,0,0,0-7,8.168.648.648,0,0,0,.038.748c2.575,3.325,4.8,8.629,7.615,11.469a6.116,6.116,0,0,0,3.278,1.7.647.647,0,0,1,.518.621l.008.368a.649.649,0,0,1-.649.663H316.45a.649.649,0,0,1-.649-.649v-.39a.649.649,0,0,1,.545-.641l.964-.156a.649.649,0,0,0,.429-.269l.117-.167a.631.631,0,0,0,.1-.509c-.392-1.594-3.835-7.305-4.231-7.412-.542-.145-1.4,1.992-2.068,2.5a.679.679,0,0,0-.2.231c-.719,1.409-3.453,3.632-2.369,5.1.734.994,2.2.228,2.039,1.8a.641.641,0,0,1-.644.566h-8.415a.651.651,0,0,1-.647-.719c.107-.989,1.134-.783,1.947-1.363,3.193-2.276,5.831-7.058,8.523-10.114a.654.654,0,0,0,.054-.8l-7.33-10.674a.652.652,0,0,0-.172-.171,6.549,6.549,0,0,0-2.722-1.308.644.644,0,0,1-.56-.635l0-.31a.649.649,0,0,1,.649-.655h11.743a.649.649,0,0,1,.649.659Z" transform="translate(-205.155 -26.542)"/>
      <path id="Tracciato_6576" data-name="Tracciato 6576" d="M188.809,37.625v2.861a.649.649,0,0,0,1.146.418l1.365-1.624a.671.671,0,0,1,.073-.075c1.837-1.621,4.21-2.8,6.741-2.277.783.161,2.671,1.157,2.787,2.013a20.844,20.844,0,0,1-1.583,5.1c-.826.59-2.934-1.583-3.892-1.885-2.442-.769-5.692,1.932-6.176,4.232a83.658,83.658,0,0,0-.069,13.8c.367,1.813,1.8,2.5,3.434,2.494a.644.644,0,0,1,.635.65v.262a.65.65,0,0,1-.65.648H179.9a.649.649,0,0,1-.649-.648v-.26a.647.647,0,0,1,.648-.648,3.1,3.1,0,0,0,2.4-.948.623.623,0,0,0,.165-.423l.285-19.434a.706.706,0,0,0-.016-.164c-.425-1.84-3.067-1.29-3.223-2.664a.639.639,0,0,1,.538-.683l8-1.384a.649.649,0,0,1,.76.64Z" transform="translate(-122.112 -25.07)"/>
      <path id="Tracciato_6577" data-name="Tracciato 6577" d="M264.532,15.8c5.866-1.352,5.786,9.006-.035,7.2-2.765-.858-2.806-6.545.035-7.2Z" transform="translate(-178.761 -10.681)"/>
    </g>
  </g>
</svg>
