<svg xmlns="http://www.w3.org/2000/svg" xmlns:xlink="http://www.w3.org/1999/xlink" id="REFINK_NERO_SO" viewBox="0 0 565.41 194.92">
  <defs>
    
    <linearGradient id="linear-gradient" x1="0" y1="175.13" x2="565.35" y2="175.13" gradientUnits="userSpaceOnUse">
      <stop offset="0" stop-color="#365142"/>
      <stop offset=".5" stop-color="#1b9162"/>
      <stop offset="1" stop-color="#fff"/>
    </linearGradient>
  </defs>
  <g>
    <path d="M442.23,78.23c-.03-3.51-.41-7.11-1.29-10.5-6.69-25.86-41.15-35.18-60.48-16.4-.66.64-1.3,1.26-1.3,1.26,0,0-.06,6.49-.06,9.76,8.84-8.72,13.13-10.81,24.24-12.13,13.1-1.55,24.79,5.79,28.51,18.43,1.27,4.32,1.81,8.97,1.88,13.49.23,14.86.09,29.72.09,44.58,0,1.22-.02,2.67-.02,4.04h8.5v-2.79s.07-33.15-.06-49.73Z" fill="rgb(35, 31, 32)"/>
    <path d="M8.73,127.14V12.33H0v118.43h8.73v-1.9c.02-.45.01-1.02,0-1.72Z" fill="rgb(35, 31, 32)"/>
    <polygon points="248.42 59.39 248.42 59.38 240.55 59.38 240.55 59.39 240.55 130.6 240.55 130.76 248.42 130.76 248.42 130.6 248.42 59.39" fill="rgb(35, 31, 32)"/>
    <path d="M224.07,51.14h58.6v-7.05h-33.53c0-6.86-.59-13.39.13-19.77,1.22-10.81,8.27-16.6,19.11-16.37,3.35.07,6.68.95,10.29,1.5.68-1.81,1.47-3.92,2.59-6.89-3.72-.84-6.98-1.84-10.31-2.27-14.19-1.83-25.81,5.35-29.44,18.29-.88,3.14-1.05,6.52-1.17,9.81-.19,5.1-.05,10.21-.05,15.7h-16.23v7.05Z" fill="rgb(35, 31, 32)"/>
    <polygon points="318.34 44.35 310.65 44.35 310.56 44.35 310.56 130.76 318.34 130.76 318.34 130.55 318.34 44.35" fill="rgb(35, 31, 32)"/>
    <rect x="363.46" y="43.9" width="8.52" height="86.86" fill="rgb(35, 31, 32)"/>
    <polygon points="491.48 3.59 483.53 3.59 483.53 130.58 483.53 130.76 491.48 130.76 491.48 130.58 491.48 3.59" fill="rgb(35, 31, 32)"/>
    <path d="M58.85,90.31c-4.25-4.72-8.52-9.46-12.84-14.24,3.75,0,6.59.25,9.37-.06,4.52-.49,9.18-.78,13.45-2.16,11.11-3.59,18.82-10.94,20.99-22.71,2.12-11.55-.04-22.17-9.39-30.28-6.86-5.95-15.08-8.49-24.02-8.6-3.43-.04-6.87-.06-10.3-.07h0s-29.2,0-29.2,0v8.05h3.58c.08,0,.16,0,.24,0,3.17,0,6.34,0,9.51,0h13.87c2.5,0,4.99.03,7.49.06,3.75.05,7.59.17,11.23.97,11.52,2.53,18.86,11.44,18.94,22.51.09,11.5-6.86,20.43-18.43,23.29-3.18.79-6.55,1.09-9.84,1.14-2.5.04-4.99.06-7.49.07h0s-29.1,0-29.1,0v7.8s9.96-.03,11.5-.03c1.11.02,2.21.06,3.31.13.64.07,1.2.17,1.7.31.68.21,1.34.51,1.94.88.53.36,1.03.8,1.56,1.34.83.92,1.66,1.85,2.49,2.77.38.43.79.88,1.24,1.37,3.25,3.6,6.49,7.2,9.73,10.81l20.06,22.33c3.88,4.33,7.76,8.66,11.64,12.98.16.17.33.36.51.54l1.14,1.27h3.87c2.36.02,4.83-.03,7.68-.03-3.94-4.37-7.84-8.7-11.73-13.02l-24.71-27.41Z" fill="rgb(35, 31, 32)"/>
    <polygon points="506.72 85.22 559.37 43.54 546.77 43.54 499.65 80.37 499.65 90.7 552.25 130.74 565.41 130.74 506.7 86.29 506.72 85.22" fill="rgb(35, 31, 32)"/>
    <circle cx="314.49" cy="17.05" r="6.88" fill="rgb(35, 31, 32)"/>
    <path d="M160.4,41.12c-25.24,0-43.44,20.7-43.44,45.57,0,.46.02.91.03,1.36h86.82c.01-.45.03-.9.03-1.36,0-24.87-12.34-45.57-43.44-45.57ZM126.02,80.66c0-12.39,14.41-30.81,34.43-30.81,24.67,0,34.43,18.42,34.43,30.81,0,0-68.73.12-68.86,0Z" fill="rgb(35, 31, 32)"/>
    <path d="M193.72,100.07h0c-4.62,10.76-16.64,21.85-32,21.85-23.29,0-35.02-16.76-35.87-29.06h-8.9c2.38,21.27,17.32,37.79,44.82,37.79,19.22,0,34.3-12.27,40.23-29.27l-8.28-1.31Z" fill="rgb(35, 31, 32)"/>
  </g>
  <rect x="0" y="144.67" width="565.41" height="1.37" fill="rgb(35, 31, 32)"/>
  <rect y="155.34" width="565.35" height="39.58" fill="url(&quot;#linear-gradient&quot;)"/>
</svg>