<?xml version="1.0" encoding="UTF-8"?>
<svg id="Livello_2" data-name="Livello 2" xmlns="http://www.w3.org/2000/svg" xmlns:xlink="http://www.w3.org/1999/xlink" viewBox="0 0 115.441 131.976">
  <defs>
    <style>
      .cls-1 {
        fill: url(#Sfumatura_senza_nome_36);
      }

      .cls-2 {
        fill: #9d038b;
      }

      .cls-3 {
        fill: url(#Sfumatura_senza_nome_36-3);
      }

      .cls-4 {
        fill: url(#Sfumatura_senza_nome_36-2);
      }
    </style>
    <linearGradient id="Sfumatura_senza_nome_36" data-name="Sfumatura senza nome 36" x1="43.555" y1="68.503" x2="115.441" y2="68.503" gradientUnits="userSpaceOnUse">
      <stop offset="0" stop-color="#ff5d5e"/>
      <stop offset="1" stop-color="#ff5e5e"/>
    </linearGradient>
    <linearGradient id="Sfumatura_senza_nome_36-2" data-name="Sfumatura senza nome 36" x1="55.732" y1="33.919" x2="111.696" y2="33.919" xlink:href="#Sfumatura_senza_nome_36"/>
    <linearGradient id="Sfumatura_senza_nome_36-3" data-name="Sfumatura senza nome 36" x1="66.765" y1="124.751" x2="81.002" y2="124.751" xlink:href="#Sfumatura_senza_nome_36"/>
  </defs>
  <g id="Livello_1-2" data-name="Livello 1">
    <g>
      <path class="cls-1" d="M59.072,51.674l-2.398,12.891c1.996,2.367,4.621,4.524,4.298,7.961l13.534,4.575c2.138-3.088,5.678-4.775,9.304-3.229,1.353.577,2.8,2.534,3.796,2.535l14.29-2.722c1.386-5.576,8.74-7.636,12.155-2.626,3.371,4.945.267,10.79-5.626,10.981-3.074.099-5.076-3.15-6.319-3.149l-14.062,2.777c-.631,3.741-3.453,4.961-6.546,6.402l-3.045,12.309c3.576,5.029,1.303,12.045-5.512,11.139-6.067-.807-7.121-8.946-2.118-11.571.693-.364,1.662-.355,2.227-.694.922-.553,2.943-10.894,3.495-12.749l-2.365-3.736-14.492-4.776c-1.587.75-2.322,2.117-4.148,2.738-10.911,3.71-16.232-10.329-7.908-15.307,1.245-.745,2.7-.94,3.815-1.822l2.323-13.157c-10.219-3.659-11.021-19.532-.857-23.742,18.818-7.793,26.563,22.085,6.161,24.974Z"/>
      <path class="cls-4" d="M82.857,59.006c-.248.301-.261,2.839-.591,3.831-1.963,5.896-10.904,6.886-13.56,1.318-3.892-8.158,4.493-14.122,11.571-9.657l11.865-6.95c-.628-3.322.158-5.318,1.228-8.323l-21.126-21.149c-3.055,1.22-4.866,2.256-8.347,1.724-9.92-1.516-10.857-15.989-2.509-18.98,9.342-3.347,15.645,4.044,13.846,13.079l21.685,21.733.921.269c16.316-5.406,19.43,20.566,2.807,19.149-3.104-.265-3.971-2.297-6.627-2.659l-11.164,6.615Z"/>
      <path class="cls-2" d="M27.874,49.789c11.87-4.466,16.43,12.57,5.938,15.813-10.174,3.145-15.231-12.317-5.938-15.813Z"/>
      <path class="cls-2" d="M39.034,16.597c2.416,1.642,3.644,4.839,3.262,7.672-1.148,8.522-13.575,8.868-15.197.371-1.281-6.706,6.207-11.936,11.935-8.043Z"/>
      <path class="cls-2" d="M47.075,111.403c9.505-3.49,13.958,11.19,4.68,13.877-8.906,2.579-13.062-10.799-4.68-13.877Z"/>
      <path class="cls-3" d="M70.724,118.278c11.56-4.788,14.906,14.915,1.968,13.638-6.965-.687-8.011-11.135-1.968-13.638Z"/>
      <path class="cls-2" d="M5.633,73.304c8.857-3.397,12.067,9.888,3.848,11.842-7.032,1.672-10.609-9.249-3.848-11.842Z"/>
      <path class="cls-2" d="M30.173,99.473c-6.777-4.903,1.467-15.426,7.689-9.421,5.751,5.55-1.827,13.662-7.689,9.421Z"/>
      <path class="cls-2" d="M3.256,37.825c7.252-2.644,10.18,8.212,3.527,10.166-6.404,1.881-9.634-7.939-3.527-10.166Z"/>
    </g>
  </g>
</svg>