<svg width="26" height="30" viewBox="0 0 26 30" fill="none" xmlns="http://www.w3.org/2000/svg">
  <path
    d="M24.027 23.433H19.82M19.82 23.433H15.612M19.82 23.433V19.225M19.82 23.433V27.641M11.404 27.641H1.586C1.58717 26.1122 1.94506 24.6047 2.63122 23.2385C3.31737 21.8723 4.31285 20.685 5.53849 19.7712C6.76412 18.8573 8.18609 18.242 9.6913 17.9743C11.1965 17.7066 12.7434 17.7938 14.209 18.229M17.014 8.00398C17.014 9.11353 16.685 10.1982 16.0685 11.1207C15.4521 12.0433 14.5759 12.7623 13.5509 13.1869C12.5258 13.6116 11.3978 13.7227 10.3095 13.5062C9.22131 13.2897 8.2217 12.7554 7.43713 11.9709C6.65256 11.1863 6.11826 10.1867 5.9018 9.09844C5.68533 8.0102 5.79643 6.88222 6.22104 5.85713C6.64564 4.83203 7.36469 3.95587 8.28725 3.33944C9.20981 2.723 10.2944 2.39398 11.404 2.39398C12.1407 2.39398 12.8702 2.53909 13.5509 2.82102C14.2315 3.10295 14.8499 3.51618 15.3709 4.03711C15.8918 4.55805 16.305 5.17649 16.587 5.85713C16.8689 6.53776 17.014 7.26727 17.014 8.00398Z"
    stroke="#FFFFFF" stroke-width="3" stroke-linecap="round" stroke-linejoin="round" />
</svg>