<svg xmlns="http://www.w3.org/2000/svg" width="32.091" height="32.091" viewBox="0 0 32.091 32.091">
  <g id="chat-line-svgrepo-com" transform="translate(-1.25 -1.25)">
    <path id="Tracciato_6561" data-name="Tracciato 6561"
      d="M18.917,31.307l.963.57Zm.809-1.367-.963-.57Zm-4.862,0-.963.57h0Zm.809,1.367.963-.57ZM2.938,23.137l1.034-.428h0Zm8.073,4.594-.019,1.119Zm-4.034-.555L6.548,28.21h0Zm24.677-4.039,1.034.428h0ZM23.58,27.731l-.019-1.119Zm4.034-.555.428,1.034h0ZM28.658,3.469l-.585.954Zm2.464,2.464.955-.585h0ZM5.933,3.469l-.585-.954h0ZM3.469,5.933l-.954-.585h0Zm9.95,22.124.563-.968h0Zm6.462,3.821.809-1.367-1.927-1.14-.809,1.367ZM13.9,30.511l.809,1.367,1.927-1.14-.809-1.367Zm4.053.227a.777.777,0,0,1-1.317,0l-1.927,1.14a3.016,3.016,0,0,0,5.171,0Zm-2.9-27.248h4.478V1.25H15.057ZM31.1,15.057v1.493h2.239V15.057ZM3.489,16.549V15.057H1.25v1.493Zm-2.239,0c0,1.723,0,3.072.074,4.16a8.89,8.89,0,0,0,.58,2.856l2.068-.857a6.724,6.724,0,0,1-.414-2.152c-.068-.994-.068-2.253-.068-4.007Zm9.78,10.062a10.05,10.05,0,0,1-3.625-.47L6.548,28.21a12.058,12.058,0,0,0,4.444.64ZM1.9,23.565A8.583,8.583,0,0,0,6.548,28.21L7.4,26.141a6.344,6.344,0,0,1-3.433-3.433Zm29.2-7.016c0,1.754,0,3.013-.068,4.007a6.727,6.727,0,0,1-.414,2.152l2.068.857a8.889,8.889,0,0,0,.58-2.856c.074-1.088.074-2.436.074-4.16Zm-7.5,12.3a12.058,12.058,0,0,0,4.444-.64l-.857-2.068a10.05,10.05,0,0,1-3.625.47Zm7.02-6.142a6.344,6.344,0,0,1-3.433,3.433l.857,2.068a8.583,8.583,0,0,0,4.645-4.645ZM19.534,3.489c2.465,0,4.234,0,5.615.132a6.594,6.594,0,0,1,2.924.8l1.17-1.909a8.768,8.768,0,0,0-3.882-1.122c-1.511-.144-3.406-.142-5.827-.142ZM33.341,15.057c0-2.421,0-4.316-.143-5.827a8.768,8.768,0,0,0-1.122-3.881l-1.909,1.17a6.594,6.594,0,0,1,.8,2.924c.131,1.381.132,3.15.132,5.615ZM28.073,4.424a6.343,6.343,0,0,1,2.094,2.094l1.909-1.17a8.582,8.582,0,0,0-2.833-2.833ZM15.057,1.25c-2.421,0-4.316,0-5.827.142A8.767,8.767,0,0,0,5.348,2.515l1.17,1.909a6.594,6.594,0,0,1,2.924-.8c1.381-.131,3.15-.132,5.615-.132ZM3.489,15.057c0-2.465,0-4.234.132-5.615a6.594,6.594,0,0,1,.8-2.924L2.515,5.348A8.767,8.767,0,0,0,1.392,9.23c-.144,1.511-.142,3.406-.142,5.827ZM5.348,2.515A8.583,8.583,0,0,0,2.515,5.348l1.909,1.17A6.344,6.344,0,0,1,6.518,4.424ZM15.828,29.37c-.3-.512-.569-.964-.828-1.319a3.327,3.327,0,0,0-1.018-.962l-1.126,1.935a1.14,1.14,0,0,1,.335.346c.181.249.386.592.71,1.14Zm-4.836-.52c.655.011,1.071.02,1.387.055a1.175,1.175,0,0,1,.477.12l1.126-1.935a3.349,3.349,0,0,0-1.357-.41c-.444-.049-.981-.057-1.595-.068Zm9.7,1.661c.324-.548.529-.892.71-1.14a1.14,1.14,0,0,1,.334-.346l-1.126-1.935a3.326,3.326,0,0,0-1.018.962c-.259.355-.525.807-.828,1.319Zm2.871-3.9c-.614.011-1.151.019-1.595.068a3.349,3.349,0,0,0-1.357.41l1.126,1.935a1.176,1.176,0,0,1,.477-.12c.316-.035.732-.043,1.387-.055Z"
      transform="translate(0 0)" fill="#fff" stroke="#fff"
      stroke-width=".5" />
    <path id="Tracciato_6562" data-name="Tracciato 6562" d="M8,9H19.941"
      transform="translate(3.325 3.818)" fill="none" stroke="#fff" stroke-linecap="round"
      stroke-width="3" />
    <path id="Tracciato_6563" data-name="Tracciato 6563" d="M8,12.5h8.209"
      transform="translate(3.325 5.542)" fill="none" stroke="#fff" stroke-linecap="round"
      stroke-width="3" />
  </g>
</svg>