<svg width="34" height="34" viewBox="0 0 34 34" fill="none" xmlns="http://www.w3.org/2000/svg">
  <path
    d="M7.8269 3.405C7.27944 3.4046 6.73728 3.51214 6.23141 3.72146C5.72555 3.93079 5.26592 4.23778 4.8788 4.6249C4.49169 5.01201 4.18469 5.47164 3.97537 5.97751C3.76605 6.48337 3.65851 7.02554 3.6589 7.573V8.406C3.6589 8.84785 3.48338 9.2716 3.17094 9.58404C2.85851 9.89647 2.43475 10.072 1.9929 10.072C1.55105 10.072 1.1273 9.89647 0.814864 9.58404C0.502429 9.2716 0.326904 8.84785 0.326904 8.406V7.573C0.326904 5.58387 1.11708 3.67622 2.5236 2.2697C3.93013 0.863174 5.83778 0.072998 7.8269 0.072998H8.6599C9.10176 0.072998 9.52551 0.248523 9.83794 0.560958C10.1504 0.873394 10.3259 1.29715 10.3259 1.739C10.3259 2.18085 10.1504 2.6046 9.83794 2.91704C9.52551 3.22947 9.10176 3.405 8.6599 3.405H7.8269Z"
    fill="#FFFFFF" />
  <path fill-rule="evenodd" clip-rule="evenodd"
    d="M15.2549 6.73801C14.1459 6.73801 13.2129 6.73801 12.4549 6.80001C11.6661 6.83816 10.8927 7.03294 10.1799 7.37301C9.0809 7.93149 8.18713 8.82387 7.62692 9.92201C7.28685 10.6348 7.09207 11.4082 7.05392 12.197C7.02392 12.56 7.00892 12.962 7.00092 13.402H3.65892C3.21707 13.402 2.79332 13.5775 2.48088 13.89C2.16844 14.2024 1.99292 14.6262 1.99292 15.068C1.99292 15.5099 2.16844 15.9336 2.48088 16.246C2.79332 16.5585 3.21707 16.734 3.65892 16.734H30.3169C30.7588 16.734 31.1825 16.5585 31.495 16.246C31.8074 15.9336 31.9829 15.5099 31.9829 15.068C31.9829 14.6262 31.8074 14.2024 31.495 13.89C31.1825 13.5775 30.7588 13.402 30.3169 13.402H26.9759C26.9679 12.961 26.9519 12.56 26.9229 12.197C26.8848 11.4082 26.69 10.6348 26.3499 9.92201C25.7909 8.82496 24.899 7.93302 23.8019 7.37401C23.0891 7.03397 22.3158 6.83918 21.5269 6.80101C20.7629 6.73801 19.8309 6.73801 18.7209 6.73801H15.2549ZM23.6429 13.403C23.6359 13.044 23.6229 12.738 23.6009 12.469C23.5951 12.1133 23.52 11.762 23.3799 11.435C23.1424 10.9638 22.7619 10.5798 22.2929 10.338C21.9659 10.1979 21.6147 10.1229 21.2589 10.117C20.6479 10.067 19.8529 10.066 18.6589 10.066H15.3219C14.1279 10.066 13.3329 10.066 12.7219 10.117C12.3679 10.1235 12.0184 10.1986 11.6929 10.338C11.2186 10.5784 10.8333 10.9637 10.5929 11.438C10.4529 11.7651 10.3778 12.1163 10.3719 12.472C10.3499 12.741 10.3369 13.047 10.3299 13.406L23.6429 13.403Z"
    fill="#FFFFFF" />
  <path
    d="M20.446 26.732H15.255C14.146 26.732 13.213 26.732 12.455 26.67C11.6647 26.6338 10.8896 26.4404 10.175 26.101C9.07792 25.542 8.18598 24.65 7.62697 23.553C7.56597 23.433 7.53297 23.377 7.49097 23.305C7.46497 23.26 7.43497 23.205 7.39097 23.132C7.24372 22.8734 7.13905 22.5928 7.08097 22.301C7.02669 22.0003 6.99892 21.6955 6.99797 21.39C6.99097 21.077 6.99097 20.654 6.99097 20.094V20.068C6.99097 19.6262 7.16649 19.2024 7.47893 18.89C7.79136 18.5775 8.21512 18.402 8.65697 18.402C9.09882 18.402 9.52257 18.5775 9.83501 18.89C10.1474 19.2024 10.323 19.6262 10.323 20.068C10.323 20.661 10.323 21.042 10.33 21.312C10.33 21.439 10.337 21.52 10.341 21.571C10.395 21.665 10.501 21.849 10.596 22.036C10.8366 22.5062 11.2199 22.8881 11.691 23.127C12.018 23.2671 12.3692 23.3422 12.725 23.348C13.336 23.398 14.131 23.399 15.325 23.399H20.325C20.7332 23.4144 21.142 23.404 21.549 23.368C22.07 23.2853 22.5516 23.0398 22.9247 22.6667C23.2977 22.2936 23.5432 21.8121 23.626 21.291C23.662 20.8841 23.6723 20.4752 23.657 20.067C23.657 19.6252 23.8325 19.2014 24.1449 18.889C24.4574 18.5765 24.8811 18.401 25.323 18.401C25.7648 18.401 26.1886 18.5765 26.501 18.889C26.8134 19.2014 26.989 19.6252 26.989 20.067V20.193C27.0058 20.7337 26.9818 21.2749 26.917 21.812C26.7244 23.0283 26.1517 24.1525 25.281 25.0234C24.4103 25.8943 23.2863 26.4672 22.07 26.66C21.5312 26.7251 20.9883 26.7491 20.446 26.732Z"
    fill="#FFFFFF" />
  <path
    d="M33.6529 25.065C33.6529 24.6231 33.4774 24.1994 33.165 23.8869C32.8525 23.5745 32.4288 23.399 31.9869 23.399C31.5451 23.399 31.1213 23.5745 30.8089 23.8869C30.4965 24.1994 30.3209 24.6231 30.3209 25.065V25.899C30.3209 26.4462 30.2131 26.988 30.0036 27.4936C29.7941 27.9991 29.487 28.4584 29.1 28.8451C28.7129 29.2319 28.2534 29.5387 27.7477 29.7478C27.2421 29.9569 26.7001 30.0644 26.1529 30.064H25.3199C24.8781 30.064 24.4543 30.2395 24.1419 30.5519C23.8295 30.8644 23.6539 31.2881 23.6539 31.73C23.6539 32.1718 23.8295 32.5956 24.1419 32.908C24.4543 33.2205 24.8781 33.396 25.3199 33.396H26.1529C28.1415 33.396 30.0487 32.6062 31.4552 31.2003C32.8616 29.7945 33.6521 27.8876 33.6529 25.899V25.065Z"
    fill="#FFFFFF" />
  <path
    d="M23.653 1.739C23.653 1.29715 23.8285 0.873394 24.1409 0.560958C24.4534 0.248523 24.8771 0.072998 25.319 0.072998H26.153C28.1421 0.072998 30.0497 0.863174 31.4563 2.2697C32.8628 3.67622 33.653 5.58387 33.653 7.573V8.406C33.653 8.84785 33.4774 9.2716 33.165 9.58404C32.8526 9.89647 32.4288 10.072 31.987 10.072C31.5451 10.072 31.1213 9.89647 30.8089 9.58404C30.4965 9.2716 30.321 8.84785 30.321 8.406V7.573C30.3213 7.02554 30.2138 6.48337 30.0045 5.97751C29.7952 5.47164 29.4882 5.01201 29.1011 4.6249C28.7139 4.23778 28.2543 3.93079 27.7484 3.72146C27.2426 3.51214 26.7004 3.4046 26.153 3.405H25.32C25.1011 3.40513 24.8843 3.36213 24.6821 3.27847C24.4799 3.1948 24.2961 3.07211 24.1413 2.91739C23.9865 2.76268 23.8637 2.57897 23.7799 2.37678C23.6961 2.17459 23.653 1.95786 23.653 1.739Z"
    fill="#FFFFFF" />
  <path
    d="M3.6589 25.065C3.6589 24.6231 3.48338 24.1994 3.17094 23.8869C2.85851 23.5745 2.43475 23.399 1.9929 23.399C1.55105 23.399 1.1273 23.5745 0.814864 23.8869C0.502429 24.1994 0.326904 24.6231 0.326904 25.065V25.899C0.326904 27.8881 1.11708 29.7958 2.5236 31.2023C3.93013 32.6088 5.83778 33.399 7.8269 33.399H8.6599C9.10176 33.399 9.52551 33.2235 9.83794 32.911C10.1504 32.5986 10.3259 32.1748 10.3259 31.733C10.3259 31.2911 10.1504 30.8674 9.83794 30.5549C9.52551 30.2425 9.10176 30.067 8.6599 30.067H7.8269C7.27944 30.0674 6.73728 29.9598 6.23141 29.7505C5.72555 29.5412 5.26592 29.2342 4.8788 28.8471C4.49169 28.46 4.18469 28.0003 3.97537 27.4945C3.76605 26.9886 3.65851 26.4464 3.6589 25.899V25.065Z"
    fill="#FFFFFF" />
</svg>