<svg width="35" height="34" viewBox="0 0 35 34" fill="none" xmlns="http://www.w3.org/2000/svg">
  <path
    d="M1.94995 5.12698V31.505C1.95739 31.6754 2.01409 31.84 2.11319 31.9789C2.21228 32.1177 2.34952 32.2249 2.50827 32.2873C2.66702 32.3497 2.84047 32.3648 3.00761 32.3307C3.17475 32.2965 3.3284 32.2147 3.44995 32.095L10.202 25.659C10.5372 25.3435 10.9806 25.1685 11.441 25.17H29.983C30.8897 25.1901 31.7674 24.8498 32.4235 24.2236C33.0797 23.5975 33.4607 22.7367 33.483 21.83V5.12698C33.4607 4.22029 33.0797 3.35946 32.4235 2.73332C31.7674 2.10718 30.8897 1.76684 29.983 1.78698H5.44995C4.54322 1.76684 3.66551 2.10718 3.00937 2.73332C2.35324 3.35946 1.97224 4.22029 1.94995 5.12698Z"
    stroke="#213991" stroke-width="2.5" stroke-linecap="round" stroke-linejoin="round" />
  <path
    d="M24.657 16.224C22.7096 17.8477 20.2545 18.737 17.719 18.737C15.1835 18.737 12.7284 17.8477 10.781 16.224"
    stroke="#213991" stroke-width="2.5" stroke-linecap="round" stroke-linejoin="round" />
  <path d="M12.4619 10.171V10.138" stroke="#213991" stroke-width="4" stroke-linecap="round"
    stroke-linejoin="round" />
  <path d="M22.975 10.171V10.138" stroke="#213991" stroke-width="4" stroke-linecap="round"
    stroke-linejoin="round" />
</svg>