<svg width="29" height="32" viewBox="0 0 29 32" fill="none" xmlns="http://www.w3.org/2000/svg">
  <path fill-rule="evenodd" clip-rule="evenodd"
    d="M2.80995 29.536H3.22195C3.98235 29.5892 4.74197 29.4222 5.40995 29.055C5.84984 28.7462 6.16815 28.2935 6.30995 27.775C6.44668 27.332 6.51415 26.8706 6.50995 26.407C6.51508 25.916 6.43523 25.4278 6.27395 24.964C6.14568 24.5702 5.92244 24.2141 5.62395 23.927C5.3692 23.6973 5.06182 23.5338 4.72895 23.451C4.23196 23.3523 3.72542 23.31 3.21895 23.325H2.80995V29.536ZM0.647949 31.23V21.63H3.30395C4.21785 21.6023 5.13072 21.7122 6.01195 21.956C6.86406 22.2134 7.58985 22.7788 8.04795 23.542C8.54736 24.4246 8.79178 25.4286 8.75395 26.442C8.79547 27.4596 8.55088 28.4684 8.04795 29.354C7.75281 29.828 7.35518 30.2298 6.88429 30.5299C6.41341 30.83 5.88125 31.0207 5.32695 31.088C4.60958 31.1932 3.88492 31.2407 3.15995 31.23H0.647949ZM14.6089 23.157C14.2481 23.1446 13.8904 23.2283 13.5725 23.3997C13.2546 23.571 12.988 23.8237 12.7999 24.132C12.3915 24.8133 12.1916 25.5994 12.2249 26.393C12.1701 27.2728 12.4109 28.1457 12.9089 28.873C13.1212 29.1446 13.3952 29.3616 13.7082 29.5061C14.0212 29.6505 14.3641 29.7182 14.7085 29.7036C15.0529 29.6889 15.3888 29.5923 15.6884 29.4218C15.988 29.2512 16.2425 29.0117 16.4309 28.723C16.8444 28.0339 17.0444 27.2377 17.0059 26.435C17.057 25.5665 16.8163 24.7059 16.3219 23.99C16.1247 23.7233 15.866 23.5083 15.5677 23.3633C15.2694 23.2182 14.9405 23.1475 14.6089 23.157ZM14.6149 21.463C15.2641 21.4226 15.914 21.531 16.5148 21.7801C17.1157 22.0291 17.6517 22.4122 18.0819 22.9C18.882 23.8999 19.293 25.1556 19.2389 26.435C19.2739 27.1209 19.1711 27.8069 18.9364 28.4523C18.7018 29.0978 18.3402 29.6897 17.8729 30.193C17.4414 30.6061 16.9294 30.9258 16.3689 31.1322C15.8084 31.3387 15.2113 31.4275 14.6149 31.393C13.9663 31.4337 13.3169 31.326 12.7161 31.078C12.1154 30.8301 11.579 30.4484 11.1479 29.962C10.3416 28.9445 9.93037 27.6699 9.98995 26.373C9.95785 25.6941 10.0625 25.0157 10.2977 24.3781C10.5328 23.7404 10.8937 23.1565 11.3589 22.661C11.7912 22.2492 12.3031 21.9303 12.8633 21.7239C13.4234 21.5176 14.0199 21.4281 14.6159 21.461M27.8159 28.961L28.4469 30.688C27.9721 30.9288 27.4721 31.1163 26.9559 31.247C26.439 31.3518 25.9123 31.4001 25.3849 31.391C24.5891 31.4188 23.796 31.2826 23.0549 30.991C22.2204 30.634 21.5343 30.0004 21.1119 29.197C20.6959 28.3654 20.4932 27.4434 20.5219 26.514C20.47 25.7597 20.5898 25.0035 20.8723 24.3021C21.1548 23.6008 21.5926 22.9727 22.1529 22.465C23.0387 21.7655 24.1477 21.4103 25.275 21.465C25.7789 21.4603 26.2819 21.5106 26.775 21.615C27.3034 21.7435 27.8178 21.9237 28.3109 22.153L27.5869 23.78C26.9197 23.391 26.1651 23.1767 25.393 23.157C25.0243 23.1352 24.6558 23.2026 24.3186 23.3533C23.9815 23.504 23.6856 23.7338 23.4559 24.023C22.959 24.7213 22.7123 25.567 22.7559 26.423C22.7042 27.2902 22.9662 28.147 23.4939 28.837C23.7455 29.1272 24.0599 29.3562 24.4132 29.5068C24.7665 29.6574 25.1494 29.7255 25.5329 29.706C25.9 29.7106 26.2655 29.6572 26.6159 29.548C27.0361 29.3996 27.4386 29.2051 27.8159 28.968M19.2399 0.84201H1.66295V18.419H4.86295V4.04201H17.9139L24.0339 10.162V18.423H27.2339V8.83201L19.2399 0.84201Z"
    fill="#203991" />
</svg>