<svg xmlns="http://www.w3.org/2000/svg" width="37.255" height="33.778" viewBox="0 0 37.255 33.778">
  <g id="home-svgrepo-com" transform="translate(-3.5 -1.729)">
    <path id="Tracciato_5882" data-name="Tracciato 5882"
      d="M36.128,11.168l-7.34-4.825c-3.159-2.076-4.738-3.114-6.66-3.114s-3.5,1.038-6.66,3.114l-7.34,4.825a8.872,8.872,0,0,0-2.72,2.182C5,14.012,5,14.756,5,16.245V27.079c0,3.266,0,4.9,1.433,5.913s3.74,1.015,8.354,1.015h3.541l.212-6.928c0-2.152.547-3.9,3.587-3.9s4.314,1.424,4.314,3.576v7.249h3.027c4.614,0,6.921,0,8.354-1.015s1.433-2.647,1.433-5.913V16.245c0-1.489,0-2.233-.408-2.895A8.873,8.873,0,0,0,36.128,11.168Z"
      transform="translate(0 0)" fill="none" stroke="#103ab1" stroke-width="3" />
  </g>
</svg>