<svg width="31" height="31" viewBox="0 0 31 31" fill="none" xmlns="http://www.w3.org/2000/svg">
  <path
    d="M2.556 17.468C3.61695 19.9645 5.56856 21.9772 8.03122 23.1145C10.4939 24.2518 13.2915 24.4324 15.88 23.6213C18.4685 22.8101 20.6627 21.0652 22.0359 18.7259C23.4091 16.3866 23.8632 13.6201 23.3097 10.9646C22.7562 8.30909 21.2347 5.95438 19.0413 4.35847C16.8478 2.76256 14.1392 2.03956 11.4422 2.33009C8.74522 2.62063 6.25271 3.90392 4.44948 5.93038C2.64626 7.95683 1.66123 10.5815 1.686 13.294C1.69913 14.729 1.99476 16.1473 2.556 17.468Z"
    stroke="#213991" stroke-width="3" stroke-linecap="round" stroke-linejoin="round" />
  <path d="M20.34 20.92L28.815 29.4" stroke="#213991" stroke-width="3" stroke-linecap="round"
    stroke-linejoin="round" />
</svg>