<svg width="34" height="34" viewBox="0 0 34 34" fill="none" xmlns="http://www.w3.org/2000/svg">
  <path d="M27.697 27.2961L24.455 20.826L21.212 27.2961" stroke="#FFFFFF" stroke-width="2.5"
    stroke-linecap="round" stroke-linejoin="round" />
  <path d="M21.803 26.144H27.133" stroke="#FFFFFF" stroke-width="2.5" stroke-linecap="round"
    stroke-linejoin="round" />
  <path
    d="M24.454 32.342C22.9311 32.342 21.4424 31.8904 20.1761 31.0443C18.9099 30.1983 17.923 28.9957 17.3402 27.5887C16.7574 26.1817 16.6049 24.6335 16.902 23.1398C17.1991 21.6462 17.9324 20.2742 19.0093 19.1973C20.0862 18.1204 21.4582 17.3871 22.9518 17.09C24.4455 16.7929 25.9937 16.9454 27.4007 17.5281C28.8077 18.1109 30.0103 19.0979 30.8563 20.3641C31.7024 21.6304 32.154 23.1191 32.154 24.642C32.154 26.6842 31.3428 28.6427 29.8988 30.0867C28.4547 31.5308 26.4962 32.342 24.454 32.342Z"
    stroke="#FFFFFF" stroke-width="2.5" stroke-linecap="round" stroke-linejoin="round" />
  <path
    d="M6.42305 2.03705H12.363C15.5 2.03705 17.015 3.55205 16.939 6.61305V12.553C17.015 15.69 15.5 17.205 12.363 17.129H6.42305C3.36205 17.19 1.84705 15.674 1.84705 12.537V6.59805C1.84705 3.55205 3.36205 2.03705 6.42305 2.03705Z"
    stroke="#FFFFFF" stroke-width="2.5" stroke-linecap="round" stroke-linejoin="round" />
  <path d="M12.467 7.87006H6.31702" stroke="#FFFFFF" stroke-width="2.5" stroke-linecap="round"
    stroke-linejoin="round" />
  <path d="M9.37805 6.84003V7.87003" stroke="#FFFFFF" stroke-width="2.5" stroke-linecap="round"
    stroke-linejoin="round" />
  <path
    d="M10.923 7.85504C10.9444 9.10369 10.4702 10.3099 9.60404 11.2096C8.73792 12.1093 7.55056 12.629 6.302 12.655"
    stroke="#FFFFFF" stroke-width="2.5" stroke-linecap="round" stroke-linejoin="round" />
  <path
    d="M12.469 12.6581C11.9143 12.642 11.3712 12.495 10.8841 12.2291C10.397 11.9632 9.9796 11.5859 9.66602 11.1281"
    stroke="#FFFFFF" stroke-width="2.5" stroke-linecap="round" stroke-linejoin="round" />
  <path
    d="M1.84705 21.735C1.84613 23.1282 2.11986 24.5079 2.65258 25.7953C3.18531 27.0826 3.96658 28.2522 4.95171 29.2374C5.93685 30.2225 7.10652 31.0038 8.39384 31.5365C9.68115 32.0692 11.0609 32.343 12.454 32.342L10.863 29.69"
    stroke="#FFFFFF" stroke-width="2.5" stroke-linecap="round" stroke-linejoin="round" />
  <path
    d="M32.152 12.6441C32.153 11.2509 31.8792 9.87115 31.3465 8.58384C30.8138 7.29652 30.0325 6.12685 29.0474 5.14172C28.0622 4.15658 26.8926 3.37531 25.6053 2.84259C24.3179 2.30986 22.9382 2.03613 21.545 2.03705L23.136 4.68905"
    stroke="#FFFFFF" stroke-width="2.5" stroke-linecap="round" stroke-linejoin="round" />
</svg>