<svg width="30" height="23" viewBox="0 0 30 23" fill="none" xmlns="http://www.w3.org/2000/svg">
  <path fill-rule="evenodd" clip-rule="evenodd"
    d="M24.925 0.615997C25.3476 0.859908 25.656 1.26167 25.7824 1.73293C25.9088 2.20419 25.8428 2.70636 25.599 3.129L23.43 6.885C23.3965 6.95393 23.3587 7.02072 23.317 7.085L23.287 7.131L17.804 16.631C18.2738 17.2899 18.5132 18.0854 18.4853 18.8941C18.4574 19.7029 18.1637 20.4799 17.6496 21.1049C17.1355 21.7299 16.4298 22.168 15.6416 22.3514C14.8534 22.5348 14.0268 22.4534 13.2896 22.1196C12.5524 21.7858 11.9458 21.2183 11.5636 20.5049C11.1815 19.7916 11.0451 18.9722 11.1757 18.1736C11.3062 17.3749 11.6964 16.6416 12.2858 16.087C12.8752 15.5325 13.6309 15.1877 14.436 15.106L19.225 6.811C17.5453 6.07717 15.7093 5.7732 13.8828 5.92651C12.0562 6.07982 10.2966 6.68559 8.76274 7.68914C7.22889 8.69269 5.96909 10.0624 5.09709 11.6747C4.22508 13.287 3.7683 15.091 3.768 16.924C3.77372 17.1692 3.73036 17.413 3.64049 17.6412C3.55061 17.8694 3.41603 18.0773 3.24465 18.2527C3.07327 18.4281 2.86856 18.5675 2.64253 18.6627C2.41651 18.7579 2.17374 18.8069 1.9285 18.8069C1.68326 18.8069 1.44049 18.7579 1.21447 18.6627C0.988443 18.5675 0.783725 18.4281 0.612345 18.2527C0.440966 18.0773 0.306384 17.8694 0.216509 17.6412C0.126635 17.413 0.0832823 17.1692 0.0889991 16.924C0.0895054 14.4453 0.716007 12.0069 1.91039 9.83497C3.10477 7.66303 4.82834 5.82792 6.92121 4.49986C9.01409 3.1718 11.4085 2.39382 13.8823 2.23808C16.356 2.08235 18.8291 2.5539 21.072 3.609L22.412 1.289C22.6561 0.866592 23.0579 0.558409 23.5292 0.432206C24.0004 0.306003 24.5025 0.372111 24.925 0.615997ZM24.902 8.722C25.3204 8.47106 25.8213 8.39656 26.2946 8.51489C26.768 8.63322 27.1749 8.93469 27.426 9.353C28.7997 11.6406 29.5256 14.2586 29.526 16.927C29.5148 17.4074 29.3161 17.8644 28.9723 18.2003C28.6286 18.5361 28.1671 18.7241 27.6865 18.7241C27.2059 18.7241 26.7444 18.5361 26.4007 18.2003C26.0569 17.8644 25.8582 17.4074 25.847 16.927C25.8471 14.9257 25.303 12.962 24.273 11.246C24.0219 10.8278 23.9471 10.3271 24.065 9.85379C24.183 9.38051 24.484 8.97341 24.902 8.722Z"
    fill="#FFFFFF" />
</svg>